<?xml version="1.0" encoding="UTF-8" standalone="no"?>
<!-- Created with Inkscape (http://www.inkscape.org/) -->

<svg
   width="93.206108mm"
   height="93.206108mm"
   viewBox="0 0 93.206108 93.206108"
   version="1.1"
   id="svg1"
   xml:space="preserve"
   inkscape:version="1.4.3 (0d15f75042, 2025-12-25)"
   sodipodi:docname="arch.svg"
   xmlns:inkscape="http://www.inkscape.org/namespaces/inkscape"
   xmlns:sodipodi="http://sodipodi.sourceforge.net/DTD/sodipodi-0.dtd"
   xmlns:xlink="http://www.w3.org/1999/xlink"
   xmlns="http://www.w3.org/2000/svg"
   xmlns:svg="http://www.w3.org/2000/svg"><sodipodi:namedview
     id="namedview1"
     pagecolor="#ffffff"
     bordercolor="#000000"
     borderopacity="0.25"
     inkscape:showpageshadow="2"
     inkscape:pageopacity="0.0"
     inkscape:pagecheckerboard="0"
     inkscape:deskcolor="#d1d1d1"
     inkscape:document-units="mm"
     inkscape:zoom="1.0503157"
     inkscape:cx="163.28425"
     inkscape:cy="305.14636"
     inkscape:window-width="3440"
     inkscape:window-height="1392"
     inkscape:window-x="0"
     inkscape:window-y="0"
     inkscape:window-maximized="1"
     inkscape:current-layer="layer1" /><defs
     id="defs1"><linearGradient
       x1="112.49854"
       y1="6.1372099"
       x2="112.49853"
       y2="129.3468"
       id="path1082_2_"
       gradientUnits="userSpaceOnUse"
       gradientTransform="translate(287,-83)"><stop
         id="stop193"
         style="stop-color:#ffffff;stop-opacity:0"
         offset="0" /><stop
         id="stop195"
         style="stop-color:#ffffff;stop-opacity:0.27450982"
         offset="1" /><midPointStop
         offset="0"
         style="stop-color:#FFFFFF"
         id="midPointStop197" /><midPointStop
         offset="0.5"
         style="stop-color:#FFFFFF"
         id="midPointStop199" /><midPointStop
         offset="1"
         style="stop-color:#000000"
         id="midPointStop201" /></linearGradient><linearGradient
       x1="541.33502"
       y1="104.50665"
       x2="606.91248"
       y2="303.14029"
       id="linearGradient2544"
       xlink:href="#path1082_2_"
       gradientUnits="userSpaceOnUse"
       gradientTransform="matrix(-0.3937741,0,0,0.393752,357.51969,122.00151)" /><linearGradient
       id="linearGradient3388"><stop
         id="stop3390"
         style="stop-color:#000000;stop-opacity:0"
         offset="0" /><stop
         id="stop3392"
         style="stop-color:#000000;stop-opacity:0.37113401"
         offset="1" /></linearGradient><linearGradient
       x1="490.72305"
       y1="237.72447"
       x2="490.72305"
       y2="183.9644"
       id="linearGradient4416"
       xlink:href="#linearGradient3388"
       gradientUnits="userSpaceOnUse"
       gradientTransform="matrix(0.749107,0,0,0.749107,-35.459862,91.44108)" /></defs><g
     inkscape:label="Layer 1"
     inkscape:groupmode="layer"
     id="layer1"
     transform="translate(-61.71756,-67.763359)"><rect
       style="fill:#204a87;stroke:none;stroke-width:3.57733;stroke-linejoin:round;stroke-miterlimit:10"
       id="rect1"
       width="93.206108"
       height="93.206108"
       x="61.71756"
       y="67.763359"
       rx="10"
       ry="10" /><path
       d="m 107.94641,76.316253 c -3.34766,8.207611 -5.36683,13.576342 -9.094024,21.539976 2.285244,2.422361 5.090274,5.243291 9.645604,8.429311 -4.89744,-2.01527 -8.23809,-4.03856 -10.734619,-6.13812 -4.770116,9.95355 -12.243491,24.13196 -27.409386,51.38199 11.919891,-6.88156 21.159961,-11.12412 29.771285,-12.74296 -0.369774,-1.59039 -0.579994,-3.31071 -0.565734,-5.10569 l 0.0137,-0.38185 c 0.18915,-7.63676 4.161774,-13.50941 8.867734,-13.11069 4.70597,0.39874 8.36387,6.91654 8.17474,14.55329 -0.0356,1.437 -0.19767,2.81937 -0.48087,4.10151 8.51782,1.66623 17.65909,5.89792 29.4177,12.68639 -2.31857,-4.26866 -4.38808,-8.11653 -6.36441,-11.78122 -3.11303,-2.4128 -6.36005,-5.55308 -12.98339,-8.95261 4.5525,1.18293 7.81204,2.54772 10.35277,4.07323 C 116.46373,97.457696 114.83656,92.486525 107.94595,76.316253 Z"
       id="path2518"
       style="fill:#1793d1;fill-opacity:1;fill-rule:evenodd;stroke:none;stroke-width:0.264583" /></g></svg>
