<?xml version="1.0" encoding="UTF-8" standalone="no"?>
<!-- Created with Inkscape (http://www.inkscape.org/) -->

<svg
   width="93.206108mm"
   height="93.206108mm"
   viewBox="0 0 93.206108 93.206108"
   version="1.1"
   id="svg1"
   xml:space="preserve"
   inkscape:version="1.4.3 (0d15f75042, 2025-12-25)"
   sodipodi:docname="calculator.svg"
   xmlns:inkscape="http://www.inkscape.org/namespaces/inkscape"
   xmlns:sodipodi="http://sodipodi.sourceforge.net/DTD/sodipodi-0.dtd"
   xmlns:xlink="http://www.w3.org/1999/xlink"
   xmlns="http://www.w3.org/2000/svg"
   xmlns:svg="http://www.w3.org/2000/svg"><sodipodi:namedview
     id="namedview1"
     pagecolor="#ffffff"
     bordercolor="#000000"
     borderopacity="0.25"
     inkscape:showpageshadow="2"
     inkscape:pageopacity="0.0"
     inkscape:pagecheckerboard="0"
     inkscape:deskcolor="#d1d1d1"
     inkscape:document-units="mm"
     inkscape:zoom="1.0503157"
     inkscape:cx="163.28425"
     inkscape:cy="305.14636"
     inkscape:window-width="3440"
     inkscape:window-height="1392"
     inkscape:window-x="0"
     inkscape:window-y="0"
     inkscape:window-maximized="1"
     inkscape:current-layer="layer1" /><defs
     id="defs1"><linearGradient
       x1="112.49854"
       y1="6.1372099"
       x2="112.49853"
       y2="129.3468"
       id="path1082_2_"
       gradientUnits="userSpaceOnUse"
       gradientTransform="translate(287,-83)"><stop
         id="stop193"
         style="stop-color:#ffffff;stop-opacity:0"
         offset="0" /><stop
         id="stop195"
         style="stop-color:#ffffff;stop-opacity:0.27450982"
         offset="1" /><midPointStop
         offset="0"
         style="stop-color:#FFFFFF"
         id="midPointStop197" /><midPointStop
         offset="0.5"
         style="stop-color:#FFFFFF"
         id="midPointStop199" /><midPointStop
         offset="1"
         style="stop-color:#000000"
         id="midPointStop201" /></linearGradient><linearGradient
       x1="541.33502"
       y1="104.50665"
       x2="606.91248"
       y2="303.14029"
       id="linearGradient2544"
       xlink:href="#path1082_2_"
       gradientUnits="userSpaceOnUse"
       gradientTransform="matrix(-0.3937741,0,0,0.393752,357.51969,122.00151)" /><linearGradient
       id="linearGradient3388"><stop
         id="stop3390"
         style="stop-color:#000000;stop-opacity:0"
         offset="0" /><stop
         id="stop3392"
         style="stop-color:#000000;stop-opacity:0.37113401"
         offset="1" /></linearGradient><linearGradient
       x1="490.72305"
       y1="237.72447"
       x2="490.72305"
       y2="183.9644"
       id="linearGradient4416"
       xlink:href="#linearGradient3388"
       gradientUnits="userSpaceOnUse"
       gradientTransform="matrix(0.749107,0,0,0.749107,-35.459862,91.44108)" /></defs><g
     inkscape:label="Layer 1"
     inkscape:groupmode="layer"
     id="layer1"
     transform="translate(-61.71756,-67.763359)"><rect
       style="fill:#a40000;stroke:none;stroke-width:3.57733;stroke-linejoin:round;stroke-miterlimit:10"
       id="rect1"
       width="93.206108"
       height="93.206108"
       x="61.71756"
       y="67.763359"
       rx="10"
       ry="10" /><g
       style="fill:#ffffff;stroke-width:2.68235"
       id="g21"
       transform="matrix(0.15412263,0,0,0.15412263,68.865221,74.910943)"><g
         id="g2"
         style="fill:#ffffff;stroke-width:2.68235">
	<g
   id="g1"
   style="fill:#ffffff;stroke-width:2.68235">
		<path
   d="M 403.432,0 H 108.57 C 86.583,0 68.695,17.887 68.695,39.874 v 432.253 c 0,21.987 17.887,39.874 39.874,39.874 h 294.862 c 21.987,0 39.874,-17.887 39.874,-39.874 V 39.874 C 443.305,17.887 425.417,0 403.432,0 Z m 20.865,472.127 h -0.001 c 0,11.505 -9.36,20.865 -20.865,20.865 H 108.57 c -11.505,0 -20.865,-9.36 -20.865,-20.865 V 39.874 c 0,-11.505 9.36,-20.865 20.865,-20.865 h 294.862 c 11.505,0 20.865,9.36 20.865,20.865 z"
   id="path1"
   style="fill:#ffffff;stroke-width:2.68235" />
	</g>
</g><g
         id="g4"
         style="fill:#ffffff;stroke-width:2.68235">
	<g
   id="g3"
   style="fill:#ffffff;stroke-width:2.68235">
		<path
   d="M 382.1,51.081 H 129.901 c -5.25,0 -9.504,4.255 -9.504,9.504 v 82.322 c 0,5.249 4.254,9.504 9.504,9.504 H 382.1 c 5.25,0 9.504,-4.255 9.504,-9.504 V 60.585 c 0,-5.249 -4.255,-9.504 -9.504,-9.504 z m -9.504,82.322 H 139.406 V 70.089 h 233.19 z"
   id="path2"
   style="fill:#ffffff;stroke-width:2.68235" />
	</g>
</g><g
         id="g6"
         style="fill:#ffffff;stroke-width:2.68235">
	<g
   id="g5"
   style="fill:#ffffff;stroke-width:2.68235">
		<path
   d="m 185.115,181.553 h -55.214 c -5.25,0 -9.504,4.255 -9.504,9.504 v 59.335 c 0,5.249 4.254,9.504 9.504,9.504 h 55.214 c 5.25,0 9.504,-4.255 9.504,-9.504 v -59.335 c 0.001,-5.248 -4.253,-9.504 -9.504,-9.504 z m -9.504,59.336 h -36.205 v -40.327 h 36.205 z"
   id="path4"
   style="fill:#ffffff;stroke-width:2.68235" />
	</g>
</g><g
         id="g8"
         style="fill:#ffffff;stroke-width:2.68235">
	<g
   id="g7"
   style="fill:#ffffff;stroke-width:2.68235">
		<path
   d="m 185.115,283.696 h -55.214 c -5.25,0 -9.504,4.255 -9.504,9.504 v 59.335 c 0,5.249 4.254,9.504 9.504,9.504 h 55.214 c 5.25,0 9.504,-4.255 9.504,-9.504 V 293.2 c 0.001,-5.248 -4.253,-9.504 -9.504,-9.504 z m -9.504,59.336 h -36.205 v -40.327 h 36.205 z"
   id="path6"
   style="fill:#ffffff;stroke-width:2.68235" />
	</g>
</g><g
         id="g10"
         style="fill:#ffffff;stroke-width:2.68235">
	<g
   id="g9"
   style="fill:#ffffff;stroke-width:2.68235">
		<path
   d="m 185.115,385.84 h -55.214 c -5.25,0 -9.504,4.255 -9.504,9.504 v 59.335 c 0,5.249 4.254,9.504 9.504,9.504 h 55.214 c 5.25,0 9.504,-4.255 9.504,-9.504 v -59.335 c 0.001,-5.249 -4.253,-9.504 -9.504,-9.504 z m -9.504,59.335 h -36.205 v -40.327 h 36.205 z"
   id="path8"
   style="fill:#ffffff;stroke-width:2.68235" />
	</g>
</g><g
         id="g12"
         style="fill:#ffffff;stroke-width:2.68235">
	<g
   id="g11"
   style="fill:#ffffff;stroke-width:2.68235">
		<path
   d="m 283.608,181.553 h -55.214 c -5.25,0 -9.504,4.255 -9.504,9.504 v 59.335 c 0,5.249 4.254,9.504 9.504,9.504 h 55.214 c 5.25,0 9.504,-4.255 9.504,-9.504 v -59.335 c 0,-5.248 -4.255,-9.504 -9.504,-9.504 z m -9.505,59.336 h -36.205 v -40.327 h 36.205 z"
   id="path10"
   style="fill:#ffffff;stroke-width:2.68235" />
	</g>
</g><g
         id="g14"
         style="fill:#ffffff;stroke-width:2.68235">
	<g
   id="g13"
   style="fill:#ffffff;stroke-width:2.68235">
		<path
   d="m 283.608,283.696 h -55.214 c -5.25,0 -9.504,4.255 -9.504,9.504 v 59.335 c 0,5.249 4.254,9.504 9.504,9.504 h 55.214 c 5.25,0 9.504,-4.255 9.504,-9.504 V 293.2 c 0,-5.248 -4.255,-9.504 -9.504,-9.504 z m -9.505,59.336 h -36.205 v -40.327 h 36.205 z"
   id="path12"
   style="fill:#ffffff;stroke-width:2.68235" />
	</g>
</g><g
         id="g16"
         style="fill:#ffffff;stroke-width:2.68235">
	<g
   id="g15"
   style="fill:#ffffff;stroke-width:2.68235">
		<path
   d="m 283.608,385.84 h -55.214 c -5.25,0 -9.504,4.255 -9.504,9.504 v 59.335 c 0,5.249 4.254,9.504 9.504,9.504 h 55.214 c 5.25,0 9.504,-4.255 9.504,-9.504 v -59.335 c 0,-5.249 -4.255,-9.504 -9.504,-9.504 z m -9.505,59.335 h -36.205 v -40.327 h 36.205 z"
   id="path14"
   style="fill:#ffffff;stroke-width:2.68235" />
	</g>
</g><g
         id="g18"
         style="fill:#ffffff;stroke-width:2.68235">
	<g
   id="g17"
   style="fill:#ffffff;stroke-width:2.68235">
		<path
   d="m 382.1,181.553 h -55.214 c -5.25,0 -9.504,4.255 -9.504,9.504 v 59.335 c 0,5.249 4.254,9.504 9.504,9.504 H 382.1 c 5.25,0 9.504,-4.255 9.504,-9.504 v -59.335 c 0,-5.248 -4.255,-9.504 -9.504,-9.504 z m -9.504,59.336 H 336.39 v -40.327 h 36.205 v 40.327 z"
   id="path16"
   style="fill:#ffffff;stroke-width:2.68235" />
	</g>
</g><g
         id="g20"
         style="fill:#ffffff;stroke-width:2.68235">
	<g
   id="g19"
   style="fill:#ffffff;stroke-width:2.68235">
		<path
   d="m 382.1,283.696 h -55.214 c -5.25,0 -9.504,4.255 -9.504,9.504 v 161.48 c 0,5.249 4.254,9.504 9.504,9.504 H 382.1 c 5.25,0 9.504,-4.255 9.504,-9.504 V 293.201 c 0,-5.249 -4.255,-9.505 -9.504,-9.505 z m -9.504,161.479 H 336.39 v -142.47 h 36.205 v 142.47 z"
   id="path18"
   style="fill:#ffffff;stroke-width:2.68235" />
	</g>
</g></g></g></svg>
