<?xml version="1.0" encoding="UTF-8" standalone="no"?>
<!-- Created with Inkscape (http://www.inkscape.org/) -->

<svg
   width="93.206108mm"
   height="93.206108mm"
   viewBox="0 0 93.206108 93.206108"
   version="1.1"
   id="svg1"
   xml:space="preserve"
   inkscape:version="1.4.3 (0d15f75042, 2025-12-25)"
   sodipodi:docname="code.svg"
   xmlns:inkscape="http://www.inkscape.org/namespaces/inkscape"
   xmlns:sodipodi="http://sodipodi.sourceforge.net/DTD/sodipodi-0.dtd"
   xmlns:xlink="http://www.w3.org/1999/xlink"
   xmlns="http://www.w3.org/2000/svg"
   xmlns:svg="http://www.w3.org/2000/svg"><sodipodi:namedview
     id="namedview1"
     pagecolor="#ffffff"
     bordercolor="#000000"
     borderopacity="0.25"
     inkscape:showpageshadow="2"
     inkscape:pageopacity="0.0"
     inkscape:pagecheckerboard="0"
     inkscape:deskcolor="#d1d1d1"
     inkscape:document-units="mm"
     inkscape:zoom="1.0503157"
     inkscape:cx="163.28424"
     inkscape:cy="306.09844"
     inkscape:window-width="3440"
     inkscape:window-height="1392"
     inkscape:window-x="0"
     inkscape:window-y="0"
     inkscape:window-maximized="1"
     inkscape:current-layer="layer1" /><defs
     id="defs1"><linearGradient
       x1="112.49854"
       y1="6.1372099"
       x2="112.49853"
       y2="129.3468"
       id="path1082_2_"
       gradientUnits="userSpaceOnUse"
       gradientTransform="translate(287,-83)"><stop
         id="stop193"
         style="stop-color:#ffffff;stop-opacity:0"
         offset="0" /><stop
         id="stop195"
         style="stop-color:#ffffff;stop-opacity:0.27450982"
         offset="1" /><midPointStop
         offset="0"
         style="stop-color:#FFFFFF"
         id="midPointStop197" /><midPointStop
         offset="0.5"
         style="stop-color:#FFFFFF"
         id="midPointStop199" /><midPointStop
         offset="1"
         style="stop-color:#000000"
         id="midPointStop201" /></linearGradient><linearGradient
       x1="541.33502"
       y1="104.50665"
       x2="606.91248"
       y2="303.14029"
       id="linearGradient2544"
       xlink:href="#path1082_2_"
       gradientUnits="userSpaceOnUse"
       gradientTransform="matrix(-0.3937741,0,0,0.393752,357.51969,122.00151)" /><linearGradient
       id="linearGradient3388"><stop
         id="stop3390"
         style="stop-color:#000000;stop-opacity:0"
         offset="0" /><stop
         id="stop3392"
         style="stop-color:#000000;stop-opacity:0.37113401"
         offset="1" /></linearGradient><linearGradient
       x1="490.72305"
       y1="237.72447"
       x2="490.72305"
       y2="183.9644"
       id="linearGradient4416"
       xlink:href="#linearGradient3388"
       gradientUnits="userSpaceOnUse"
       gradientTransform="matrix(0.749107,0,0,0.749107,-35.459862,91.44108)" /></defs><g
     inkscape:label="Layer 1"
     inkscape:groupmode="layer"
     id="layer1"
     transform="translate(-61.71756,-67.763359)"><rect
       style="fill:#2e3436;stroke:none;stroke-width:3.57733;stroke-linejoin:round;stroke-miterlimit:10"
       id="rect1"
       width="93.206108"
       height="93.206108"
       x="62.221378"
       y="68.015266"
       rx="10"
       ry="10" /><g
       style="fill:#ffffff;stroke:none;stroke-width:2.0174"
       id="g21"
       transform="matrix(2.8293995,0,0,2.8293995,74.424048,81.828307)"><path
         d="M 7.90451,6.92144 C 8.41341,6.45495 8.44779,5.66424 7.9813,5.15534 7.51481,4.64645 6.7241,4.61207 6.2152,5.07856 Z M 1.46194,11.1314 2.3066,12.0529 v 0 z m 0,0.7372 0.84466,-0.9215 v 0 z m 4.75326,6.0528 c 0.5089,0.4665 1.29961,0.4322 1.7661,-0.0767 0.46649,-0.5089 0.43211,-1.2997 -0.07679,-1.7661 z m 0,-12.84284 L 0.617287,10.21 2.3066,12.0529 7.90451,6.92144 Z M 0.617287,12.79 6.2152,17.9214 7.90451,16.0786 2.3066,10.9471 Z m 0,-2.58 c -0.756643,0.6936 -0.756643,1.8864 0,2.58 L 2.3066,10.9471 c 0.32427,0.2973 0.32427,0.8085 0,1.1058 z"
         fill="#000000"
         id="path1"
         style="fill:#ffffff;stroke:none;stroke-width:2.0174" /><path
         d="m 16.0557,16.0786 c -0.5089,0.4664 -0.5432,1.2572 -0.0768,1.7661 0.4665,0.5089 1.2572,0.5432 1.7661,0.0767 z m 6.4426,-4.21 -0.8446,-0.9215 v 0 z m 0,-0.7372 -0.8446,0.9215 v 0 z M 17.745,5.07856 c -0.5089,-0.46649 -1.2996,-0.43211 -1.766,0.07678 -0.4665,0.5089 -0.4322,1.29961 0.0767,1.7661 z m 0,12.84284 5.598,-5.1314 -1.6893,-1.8429 -5.598,5.1315 z m 5.598,-7.7114 -5.598,-5.13144 -1.6893,1.84288 5.598,5.13146 z m 0,2.58 c 0.7566,-0.6936 0.7566,-1.8864 0,-2.58 l -1.6893,1.8429 c -0.3243,-0.2973 -0.3243,-0.8085 0,-1.1058 z"
         fill="#000000"
         id="path2"
         style="fill:#ffffff;stroke:none;stroke-width:2.0174" /><path
         d="M 15.2127,3.80317 C 15.3801,3.13343 14.9729,2.45476 14.3032,2.28732 13.6334,2.11989 12.9548,2.52709 12.7873,3.19683 Z M 8.78732,19.1968 c -0.16743,0.6698 0.23977,1.3484 0.90951,1.5159 0.66977,0.1674 1.34837,-0.2398 1.51587,-0.9095 z M 12.7873,3.19683 8.78732,19.1968 l 2.42538,0.6064 4,-16.00003 z"
         fill="#000000"
         id="path3"
         style="fill:#ffffff;stroke:none;stroke-width:2.0174" /></g></g></svg>
