<?xml version="1.0" encoding="UTF-8" standalone="no"?>
<!-- Created with Inkscape (http://www.inkscape.org/) -->

<svg
   width="93.206108mm"
   height="93.206108mm"
   viewBox="0 0 93.206108 93.206108"
   version="1.1"
   id="svg1"
   xml:space="preserve"
   inkscape:version="1.4.3 (0d15f75042, 2025-12-25)"
   sodipodi:docname="copy.svg"
   xmlns:inkscape="http://www.inkscape.org/namespaces/inkscape"
   xmlns:sodipodi="http://sodipodi.sourceforge.net/DTD/sodipodi-0.dtd"
   xmlns:xlink="http://www.w3.org/1999/xlink"
   xmlns="http://www.w3.org/2000/svg"
   xmlns:svg="http://www.w3.org/2000/svg"><sodipodi:namedview
     id="namedview1"
     pagecolor="#ffffff"
     bordercolor="#000000"
     borderopacity="0.25"
     inkscape:showpageshadow="2"
     inkscape:pageopacity="0.0"
     inkscape:pagecheckerboard="0"
     inkscape:deskcolor="#d1d1d1"
     inkscape:document-units="mm"
     inkscape:zoom="1.0503157"
     inkscape:cx="163.28424"
     inkscape:cy="306.09844"
     inkscape:window-width="3440"
     inkscape:window-height="1392"
     inkscape:window-x="0"
     inkscape:window-y="0"
     inkscape:window-maximized="1"
     inkscape:current-layer="layer1"
     showgrid="false" /><defs
     id="defs1"><linearGradient
       x1="112.49854"
       y1="6.1372099"
       x2="112.49853"
       y2="129.3468"
       id="path1082_2_"
       gradientUnits="userSpaceOnUse"
       gradientTransform="translate(287,-83)"><stop
         id="stop193"
         style="stop-color:#ffffff;stop-opacity:0"
         offset="0" /><stop
         id="stop195"
         style="stop-color:#ffffff;stop-opacity:0.27450982"
         offset="1" /><midPointStop
         offset="0"
         style="stop-color:#FFFFFF"
         id="midPointStop197" /><midPointStop
         offset="0.5"
         style="stop-color:#FFFFFF"
         id="midPointStop199" /><midPointStop
         offset="1"
         style="stop-color:#000000"
         id="midPointStop201" /></linearGradient><linearGradient
       x1="541.33502"
       y1="104.50665"
       x2="606.91248"
       y2="303.14029"
       id="linearGradient2544"
       xlink:href="#path1082_2_"
       gradientUnits="userSpaceOnUse"
       gradientTransform="matrix(-0.3937741,0,0,0.393752,357.51969,122.00151)" /><linearGradient
       id="linearGradient3388"><stop
         id="stop3390"
         style="stop-color:#000000;stop-opacity:0"
         offset="0" /><stop
         id="stop3392"
         style="stop-color:#000000;stop-opacity:0.37113401"
         offset="1" /></linearGradient><linearGradient
       x1="490.72305"
       y1="237.72447"
       x2="490.72305"
       y2="183.9644"
       id="linearGradient4416"
       xlink:href="#linearGradient3388"
       gradientUnits="userSpaceOnUse"
       gradientTransform="matrix(0.749107,0,0,0.749107,-35.459862,91.44108)" /></defs><g
     inkscape:label="Layer 1"
     inkscape:groupmode="layer"
     id="layer1"
     transform="translate(-61.71756,-67.763359)"><rect
       style="fill:#a40000;stroke:none;stroke-width:3.57733;stroke-linejoin:round;stroke-miterlimit:10"
       id="rect1"
       width="93.206108"
       height="93.206108"
       x="62.221378"
       y="68.015266"
       rx="10"
       ry="10" /><path
       class="st0"
       d="m 124.19805,90.61027 v 3.86767 h 6.09921 0.006 v 0.009 c 1.92632,0.006 3.67253,0.78553 4.9334,2.05141 1.25087,1.25586 2.03141,2.99207 2.0364,4.9134 h 0.009 v 0.009 36.66031 0.006 h -0.009 c -0.006,1.92133 -0.78553,3.66754 -2.05141,4.9334 -1.25586,1.25087 -2.99207,2.03141 -4.9134,2.03642 v 0.009 h -0.009 -30.871308 -0.005 v -0.009 c -1.92133,-0.006 -3.672538,-0.78555 -4.933409,-2.05143 -1.250862,-1.25586 -2.031401,-2.99205 -2.036405,-4.91338 h -0.01002 v -0.009 -8.21069 h -6.099211 -0.0049 v -0.009 c -1.921325,-0.006 -3.672535,-0.78553 -4.933405,-2.05141 -1.250865,-1.25586 -2.031404,-2.99207 -2.036406,-4.9134 h -0.01002 v -0.009 -32.31732 -0.006 h 0.01002 c 0.0049,-1.926321 0.790545,-3.672535 2.051415,-4.933405 1.255867,-1.250867 2.992067,-2.031406 4.913394,-2.036398 v -0.0095 h 0.01002 30.871305 0.006 v 0.0095 c 1.92634,0.0057 3.67256,0.785531 4.93343,2.051413 1.25084,1.255859 2.03138,2.992069 2.03639,4.9134 h 0.009 z m -5.29365,3.86767 v -3.86767 -0.009 h 0.009 c 0,-0.45532 -0.19514,-0.87561 -0.50535,-1.18582 -0.30522,-0.305217 -0.7305,-0.500357 -1.18581,-0.500357 v 0.0095 h -0.006 -30.871317 -0.01002 v -0.0095 c -0.455312,0 -0.875603,0.19514 -1.185817,0.505347 -0.305211,0.30522 -0.500345,0.7305 -0.500345,1.18582 h 0.01002 v 0.006 32.31732 0.009 h -0.01002 c 0,0.45531 0.195134,0.8756 0.505348,1.18583 0.305211,0.3052 0.730503,0.50034 1.185818,0.50034 v -0.009 h 0.0049 6.099211 v -23.15098 -0.006 h 0.01002 c 0.0049,-1.92633 0.790545,-3.67253 2.051415,-4.9334 1.255867,-1.25087 2.992059,-2.0314 4.913389,-2.03642 v -0.009 h 0.01 z m 13.07901,43.64513 v -36.66031 -0.009 h 0.009 c 0,-0.45531 -0.19512,-0.8756 -0.50535,-1.18581 -0.3052,-0.30522 -0.7305,-0.50034 -1.18581,-0.50034 v 0.009 h -0.006 -30.871308 -0.01 v -0.009 c -0.45531,0 -0.8756,0.19512 -1.18582,0.50535 -0.30521,0.3052 -0.50034,0.7305 -0.50034,1.18581 h 0.01 v 0.006 36.6603 0.009 h -0.01 c 0,0.45531 0.19513,0.8756 0.50535,1.18581 0.30521,0.30522 0.7305,0.50036 1.18582,0.50036 v -0.009 h 0.005 30.871318 0.009 v 0.009 c 0.45531,0 0.8756,-0.19514 1.18581,-0.50535 0.30522,-0.30522 0.50034,-0.73052 0.50034,-1.18583 h -0.009 z"
       id="path1"
       style="stroke-width:0.264583;fill:#ffffff" /></g><style
     type="text/css"
     id="style1">.st0{fill-rule:evenodd;clip-rule:evenodd;}</style></svg>
