<?xml version="1.0" encoding="UTF-8" standalone="no"?>
<!-- Created with Inkscape (http://www.inkscape.org/) -->

<svg
   width="93.206108mm"
   height="93.206108mm"
   viewBox="0 0 93.206108 93.206108"
   version="1.1"
   id="svg1"
   xml:space="preserve"
   inkscape:version="1.4.3 (0d15f75042, 2025-12-25)"
   sodipodi:docname="error.svg"
   xmlns:inkscape="http://www.inkscape.org/namespaces/inkscape"
   xmlns:sodipodi="http://sodipodi.sourceforge.net/DTD/sodipodi-0.dtd"
   xmlns:xlink="http://www.w3.org/1999/xlink"
   xmlns="http://www.w3.org/2000/svg"
   xmlns:svg="http://www.w3.org/2000/svg"><sodipodi:namedview
     id="namedview1"
     pagecolor="#ffffff"
     bordercolor="#000000"
     borderopacity="0.25"
     inkscape:showpageshadow="2"
     inkscape:pageopacity="0.0"
     inkscape:pagecheckerboard="0"
     inkscape:deskcolor="#d1d1d1"
     inkscape:document-units="mm"
     inkscape:zoom="1.0503157"
     inkscape:cx="163.28425"
     inkscape:cy="305.14636"
     inkscape:window-width="3440"
     inkscape:window-height="1392"
     inkscape:window-x="0"
     inkscape:window-y="0"
     inkscape:window-maximized="1"
     inkscape:current-layer="layer1" /><defs
     id="defs1"><linearGradient
       x1="112.49854"
       y1="6.1372099"
       x2="112.49853"
       y2="129.3468"
       id="path1082_2_"
       gradientUnits="userSpaceOnUse"
       gradientTransform="translate(287,-83)"><stop
         id="stop193"
         style="stop-color:#ffffff;stop-opacity:0"
         offset="0" /><stop
         id="stop195"
         style="stop-color:#ffffff;stop-opacity:0.27450982"
         offset="1" /><midPointStop
         offset="0"
         style="stop-color:#FFFFFF"
         id="midPointStop197" /><midPointStop
         offset="0.5"
         style="stop-color:#FFFFFF"
         id="midPointStop199" /><midPointStop
         offset="1"
         style="stop-color:#000000"
         id="midPointStop201" /></linearGradient><linearGradient
       x1="541.33502"
       y1="104.50665"
       x2="606.91248"
       y2="303.14029"
       id="linearGradient2544"
       xlink:href="#path1082_2_"
       gradientUnits="userSpaceOnUse"
       gradientTransform="matrix(-0.3937741,0,0,0.393752,357.51969,122.00151)" /><linearGradient
       id="linearGradient3388"><stop
         id="stop3390"
         style="stop-color:#000000;stop-opacity:0"
         offset="0" /><stop
         id="stop3392"
         style="stop-color:#000000;stop-opacity:0.37113401"
         offset="1" /></linearGradient><linearGradient
       x1="490.72305"
       y1="237.72447"
       x2="490.72305"
       y2="183.9644"
       id="linearGradient4416"
       xlink:href="#linearGradient3388"
       gradientUnits="userSpaceOnUse"
       gradientTransform="matrix(0.749107,0,0,0.749107,-35.459862,91.44108)" /></defs><g
     inkscape:label="Layer 1"
     inkscape:groupmode="layer"
     id="layer1"
     transform="translate(-61.71756,-67.763359)"><rect
       style="fill:#888a85;stroke:none;stroke-width:3.57733;stroke-linejoin:round;stroke-miterlimit:10"
       id="rect1"
       width="93.206108"
       height="93.206108"
       x="62.221378"
       y="68.015266"
       rx="10"
       ry="10" /><g
       id="page_x2C__document_x2C__emoji_x2C__No_results_x2C__empty_page"
       transform="matrix(2.049565,0,0,2.0889187,75.527574,80.943714)"
       style="stroke-width:1.43417043;stroke:#babdb6">

<g
   id="XMLID_1521_"
   style="stroke-width:1.43417043;stroke:#babdb6">

<path
   d="m 21.5,14.75 c 0.41,0 0.75,0.34 0.75,0.75 0,0.41 -0.34,0.75 -0.75,0.75 -0.41,0 -0.75,-0.34 -0.75,-0.75 0,-0.41 0.34,-0.75 0.75,-0.75 z"
   fill="#263238"
   id="XMLID_1887_"
   style="stroke-width:1.43417043;stroke:#babdb6" />

<path
   d="m 10.5,14.75 c 0.41,0 0.75,0.34 0.75,0.75 0,0.41 -0.34,0.75 -0.75,0.75 -0.41,0 -0.75,-0.34 -0.75,-0.75 0,-0.41 0.34,-0.75 0.75,-0.75 z"
   fill="#263238"
   id="XMLID_1885_"
   style="stroke-width:1.43417043;stroke:#babdb6" />

</g>

<g
   id="XMLID_1337_"
   style="stroke-width:1.43417043;stroke:#babdb6">

<g
   id="XMLID_4010_"
   style="stroke-width:1.43417043;stroke:#babdb6">

<polyline
   fill="none"
   id="XMLID_4073_"
   points="     21.5,1.5 4.5,1.5 4.5,30.5 27.5,30.5 27.5,7.5    "
   stroke="#455a64"
   stroke-linecap="round"
   stroke-linejoin="round"
   stroke-miterlimit="10"
   style="stroke-width:1.43417043;stroke:#babdb6" />

<polyline
   fill="none"
   id="XMLID_4072_"
   points="     21.5,1.5 27.479,7.5 21.5,7.5 21.5,4    "
   stroke="#455a64"
   stroke-linecap="round"
   stroke-linejoin="round"
   stroke-miterlimit="10"
   style="stroke-width:1.43417043;stroke:#babdb6" />

<path
   d="m 14.5,18.5 c 0,-0.83 0.67,-1.5 1.5,-1.5 0.83,0 1.5,0.67 1.5,1.5"
   fill="none"
   id="XMLID_4071_"
   stroke="#455a64"
   stroke-linecap="round"
   stroke-linejoin="round"
   stroke-miterlimit="10"
   style="stroke-width:1.43417043;stroke:#babdb6" />

<g
   id="XMLID_4068_"
   style="stroke-width:1.43417043;stroke:#babdb6">

<path
   d="m 20.75,15.5 c 0,0.41 0.34,0.75 0.75,0.75 0.41,0 0.75,-0.34 0.75,-0.75 0,-0.41 -0.34,-0.75 -0.75,-0.75 -0.41,0 -0.75,0.34 -0.75,0.75 z"
   fill="none"
   id="XMLID_4070_"
   stroke="#455a64"
   stroke-linecap="round"
   stroke-linejoin="round"
   stroke-miterlimit="10"
   style="stroke-width:1.43417043;stroke:#babdb6" />

<path
   d="m 11.25,15.5 c 0,0.41 -0.34,0.75 -0.75,0.75 -0.41,0 -0.75,-0.34 -0.75,-0.75 0,-0.41 0.34,-0.75 0.75,-0.75 0.41,0 0.75,0.34 0.75,0.75 z"
   fill="none"
   id="XMLID_4069_"
   stroke="#455a64"
   stroke-linecap="round"
   stroke-linejoin="round"
   stroke-miterlimit="10"
   style="stroke-width:1.43417043;stroke:#babdb6" />

</g>

</g>

<g
   id="XMLID_2974_"
   style="stroke-width:1.43417043;stroke:#babdb6">

<polyline
   fill="none"
   id="XMLID_4009_"
   points="     21.5,1.5 4.5,1.5 4.5,30.5 27.5,30.5 27.5,7.5    "
   stroke="#263238"
   stroke-linecap="round"
   stroke-linejoin="round"
   stroke-miterlimit="10"
   style="stroke-width:1.43417043;stroke:#babdb6" />

<polyline
   fill="none"
   id="XMLID_4008_"
   points="     21.5,1.5 27.479,7.5 21.5,7.5 21.5,4    "
   stroke="#263238"
   stroke-linecap="round"
   stroke-linejoin="round"
   stroke-miterlimit="10"
   style="stroke-width:1.43417043;stroke:#babdb6" />

<path
   d="m 14.5,18.5 c 0,-0.83 0.67,-1.5 1.5,-1.5 0.83,0 1.5,0.67 1.5,1.5"
   fill="none"
   id="XMLID_4007_"
   stroke="#263238"
   stroke-linecap="round"
   stroke-linejoin="round"
   stroke-miterlimit="10"
   style="stroke-width:1.43417043;stroke:#babdb6" />

<g
   id="XMLID_4004_"
   style="stroke-width:1.43417043;stroke:#babdb6">

<path
   d="m 20.75,15.5 c 0,0.41 0.34,0.75 0.75,0.75 0.41,0 0.75,-0.34 0.75,-0.75 0,-0.41 -0.34,-0.75 -0.75,-0.75 -0.41,0 -0.75,0.34 -0.75,0.75 z"
   fill="none"
   id="XMLID_4006_"
   stroke="#263238"
   stroke-linecap="round"
   stroke-linejoin="round"
   stroke-miterlimit="10"
   style="stroke-width:1.43417043;stroke:#babdb6" />

<path
   d="m 11.25,15.5 c 0,0.41 -0.34,0.75 -0.75,0.75 -0.41,0 -0.75,-0.34 -0.75,-0.75 0,-0.41 0.34,-0.75 0.75,-0.75 0.41,0 0.75,0.34 0.75,0.75 z"
   fill="none"
   id="XMLID_4005_"
   stroke="#263238"
   stroke-linecap="round"
   stroke-linejoin="round"
   stroke-miterlimit="10"
   style="stroke-width:1.43417043;stroke:#babdb6" />

</g>

</g>

</g>

</g></g></svg>
