<?xml version="1.0" encoding="UTF-8" standalone="no"?>
<!-- Created with Inkscape (http://www.inkscape.org/) -->

<svg
   width="93.206108mm"
   height="93.206108mm"
   viewBox="0 0 93.206108 93.206108"
   version="1.1"
   id="svg1"
   xml:space="preserve"
   inkscape:version="1.4.3 (0d15f75042, 2025-12-25)"
   sodipodi:docname="loading.svg"
   xmlns:inkscape="http://www.inkscape.org/namespaces/inkscape"
   xmlns:sodipodi="http://sodipodi.sourceforge.net/DTD/sodipodi-0.dtd"
   xmlns:xlink="http://www.w3.org/1999/xlink"
   xmlns="http://www.w3.org/2000/svg"
   xmlns:svg="http://www.w3.org/2000/svg"><sodipodi:namedview
     id="namedview1"
     pagecolor="#ffffff"
     bordercolor="#000000"
     borderopacity="0.25"
     inkscape:showpageshadow="2"
     inkscape:pageopacity="0.0"
     inkscape:pagecheckerboard="0"
     inkscape:deskcolor="#d1d1d1"
     inkscape:document-units="mm"
     inkscape:zoom="1.0503157"
     inkscape:cx="163.28425"
     inkscape:cy="305.14636"
     inkscape:window-width="3440"
     inkscape:window-height="1392"
     inkscape:window-x="0"
     inkscape:window-y="0"
     inkscape:window-maximized="1"
     inkscape:current-layer="layer1" /><defs
     id="defs1"><linearGradient
       x1="112.49854"
       y1="6.1372099"
       x2="112.49853"
       y2="129.3468"
       id="path1082_2_"
       gradientUnits="userSpaceOnUse"
       gradientTransform="translate(287,-83)"><stop
         id="stop193"
         style="stop-color:#ffffff;stop-opacity:0"
         offset="0" /><stop
         id="stop195"
         style="stop-color:#ffffff;stop-opacity:0.27450982"
         offset="1" /><midPointStop
         offset="0"
         style="stop-color:#FFFFFF"
         id="midPointStop197" /><midPointStop
         offset="0.5"
         style="stop-color:#FFFFFF"
         id="midPointStop199" /><midPointStop
         offset="1"
         style="stop-color:#000000"
         id="midPointStop201" /></linearGradient><linearGradient
       x1="541.33502"
       y1="104.50665"
       x2="606.91248"
       y2="303.14029"
       id="linearGradient2544"
       xlink:href="#path1082_2_"
       gradientUnits="userSpaceOnUse"
       gradientTransform="matrix(-0.3937741,0,0,0.393752,357.51969,122.00151)" /><linearGradient
       id="linearGradient3388"><stop
         id="stop3390"
         style="stop-color:#000000;stop-opacity:0"
         offset="0" /><stop
         id="stop3392"
         style="stop-color:#000000;stop-opacity:0.37113401"
         offset="1" /></linearGradient><linearGradient
       x1="490.72305"
       y1="237.72447"
       x2="490.72305"
       y2="183.9644"
       id="linearGradient4416"
       xlink:href="#linearGradient3388"
       gradientUnits="userSpaceOnUse"
       gradientTransform="matrix(0.749107,0,0,0.749107,-35.459862,91.44108)" /></defs><g
     inkscape:label="Layer 1"
     inkscape:groupmode="layer"
     id="layer1"
     transform="translate(-61.71756,-67.763359)"><rect
       style="fill:#000000;stroke:none;stroke-width:3.57733;stroke-linejoin:round;stroke-miterlimit:10"
       id="rect1"
       width="93.206108"
       height="93.206108"
       x="61.71756"
       y="67.763359"
       rx="10"
       ry="10" /><g
       style="fill:#ffffff;stroke-width:3.21625"
       id="g1"
       transform="matrix(0.19942941,0,0,0.19942941,75.414761,81.46056)"><g
         id="XMLID_2_"
         style="fill:#ffffff;stroke-width:3.21625">
	<path
   id="XMLID_4_"
   d="m 97.5,165 c 0,-8.284 -6.716,-15 -15,-15 h -60 c -8.284,0 -15,6.716 -15,15 0,8.284 6.716,15 15,15 h 60 c 8.284,0 15,-6.716 15,-15 z"
   style="fill:#ffffff;stroke-width:3.21625" />
	<path
   id="XMLID_5_"
   d="m 307.5,150 h -30 c -8.284,0 -15,6.716 -15,15 0,8.284 6.716,15 15,15 h 30 c 8.284,0 15,-6.716 15,-15 0,-8.284 -6.716,-15 -15,-15 z"
   style="fill:#ffffff;stroke-width:3.21625" />
	<path
   id="XMLID_6_"
   d="m 172.5,90 c 8.284,0 15,-6.716 15,-15 V 15 c 0,-8.284 -6.716,-15 -15,-15 -8.284,0 -15,6.716 -15,15 v 60 c 0,8.284 6.716,15 15,15 z"
   style="fill:#ffffff;stroke-width:3.21625" />
	<path
   id="XMLID_7_"
   d="m 172.501,240 c -8.284,0 -15,6.716 -15,15 v 60 c 0,8.284 6.716,15 15,15 8.284,0 15,-6.716 15,-15 v -60 c 0,-8.284 -6.716,-15 -15,-15 z"
   style="fill:#ffffff;stroke-width:3.21625" />
	<path
   id="XMLID_8_"
   d="m 77.04,48.327 c -5.856,-5.858 -15.354,-5.857 -21.213,0 -5.858,5.858 -5.858,15.355 0,21.213 l 42.427,42.428 c 2.929,2.929 6.768,4.394 10.606,4.394 3.838,0 7.678,-1.465 10.606,-4.393 5.858,-5.858 5.858,-15.355 0,-21.213 z"
   style="fill:#ffffff;stroke-width:3.21625" />
	<path
   id="XMLID_9_"
   d="m 246.746,218.034 c -5.857,-5.857 -15.355,-5.857 -21.213,0 -5.858,5.858 -5.857,15.355 0,21.213 l 42.428,42.426 c 2.929,2.929 6.768,4.393 10.607,4.393 3.839,0 7.678,-1.465 10.606,-4.393 5.858,-5.858 5.858,-15.355 0,-21.213 z"
   style="fill:#ffffff;stroke-width:3.21625" />
	<path
   id="XMLID_10_"
   d="M 98.254,218.034 55.828,260.46 c -5.858,5.858 -5.858,15.355 0,21.213 2.929,2.929 6.768,4.393 10.607,4.393 3.839,0 7.678,-1.464 10.606,-4.393 l 42.426,-42.426 c 5.858,-5.858 5.858,-15.355 0,-21.213 -5.858,-5.858 -15.356,-5.858 -21.213,0 z"
   style="fill:#ffffff;stroke-width:3.21625" />
</g></g></g></svg>
